<svg width="1125" height="627" fill="none" xmlns="http://www.w3.org/2000/svg"><path stroke="#A1ECFF" d="M357.501 38.432h26v26h-26z"/><path opacity=".45" fill="#FFBAAD" d="M1028 157.932h27v27h-27z"/><path d="M10 213.932a9 9 0 1 0 0-18 9 9 0 0 0 0 18z" stroke="#FFBEB8" stroke-width="2"/><path d="M1115 625.932a9 9 0 1 0-.001-18.001 9 9 0 0 0 .001 18.001z" stroke="#FFC56A" stroke-width="2"/><path fill-rule="evenodd" clip-rule="evenodd" d="M741.6.53c20.309 0 39.175 1.76 56.677 5.094 170.711 32.521 211.663 214.832 195.779 375.002-4.303 43.398-19.197 79.052-63.165 100.945-74.569 37.131-404.014 141.056-444.049 137.298-95.185-8.933-256.11-79.836-293.424-111.799-25.851-22.143-30.407-31.951-32.415-48.436-2.474-20.312 1.2-48.497 1.2-95.035 0-138.827 106.068-247.024 245.141-247.024.822 0 1.646-.028 2.465.011 75.094 3.576 123.023-10.363 149.501-38.13.649-.681 1.315-1.341 1.976-2.002C607.597 30.188 670.903.53 741.6.53z" fill="#F9FBFF"/><path fill-rule="evenodd" clip-rule="evenodd" d="M377.427 342.775l43.708 25.047c18.793 2.63 37.203 1.043 55.489-1.898 12.327 26.546 28.592 51.124 49.028 73.622l21.117-8.276-43.541-98.741-101.477-7.969-24.324 18.215z" fill="#DCDCDC"/><path fill-rule="evenodd" clip-rule="evenodd" d="M798.924 5.764v325.232L162.77 474.255c-6.335-32.394-7.239-68.235-7.239-106.405 0-138.791 112.734-251.305 251.798-251.305.823 0 1.645-.027 2.465.012 75.09 3.574 123.015-10.361 149.492-38.121.649-.68 1.315-1.341 1.976-2C607.57 30.18 670.873.53 741.566.53c20.308 0 39.172 1.76 56.674 5.093.23.044.454.097.684.14z" fill="#FCFDFF"/><path fill-rule="evenodd" clip-rule="evenodd" d="M798.924 5.829c170.587 32.515 211.546 214.747 195.708 374.9l-195.023-49.411-.685-325.49z" fill="#FDFEFF"/><path fill-rule="evenodd" clip-rule="evenodd" d="M807.601 391.227l21.683-4.236-5.015 24.847-3.837.895-12.831-21.506zM868.412 378.886l19.304-3.843-4.465 22.54-3.416.812-11.423-19.509z" fill="#CCD6FF"/><path fill-rule="evenodd" clip-rule="evenodd" d="M868.379 379.041l8.111-1.609 3.262 20.968-11.373-19.359zM807.581 391.167l9.238-1.792 3.714 23.352-12.952-21.56z" fill="#96AAFF"/><path fill-rule="evenodd" clip-rule="evenodd" d="M901.735 308.7l-86.99 13.12v68.887l86.99-17.156V308.7z" fill="#98ACFF"/><path fill-rule="evenodd" clip-rule="evenodd" d="M901.735 341.077l-86.99 15.123v2.129l86.99-15.253v-1.999z" fill="#E9EEFF"/><path fill-rule="evenodd" clip-rule="evenodd" d="M746.528 298.888l64.64 23.612 90.567-13.663-87.4-20.309-67.807 10.36z" fill="#C8D3FF"/><path fill-rule="evenodd" clip-rule="evenodd" d="M849.156 288.262c0 12.963-12.455 23.473-27.819 23.473-15.364 0-27.291-10.518-27.818-23.473-.154-3.774-.079-8.992.234-10.914.382-2.339 8.134-3.294 26.763-3.294 18.714 0 26.762 0 27.857 3.226.705 2.074.783 7.137.783 10.982z" fill="#FFBAAD"/><path fill-rule="evenodd" clip-rule="evenodd" d="M848.368 277.504c0 5.275-12.253 9.552-27.369 9.552-15.115 0-27.368-4.277-27.368-9.552 0-5.276 12.253-9.553 27.368-9.553 15.116 0 27.369 4.277 27.369 9.553z" fill="#F3F6FF"/><path fill-rule="evenodd" clip-rule="evenodd" d="M821.614 276.161c-10.987 0-20.459 2.273-24.827 5.554 4.632 3.011 13.696 5.056 24.119 5.056 10.987 0 20.458-2.273 24.827-5.553-4.633-3.011-13.696-5.057-24.119-5.057z" fill="#BA9D8E"/><path fill-rule="evenodd" clip-rule="evenodd" d="M791.603 192.749c-3.424-6.283-7.385-16.455-7.896-23.657-1.917-27.038 18.445-36.52 18.633-45.055.127-5.766-4.205-8.147-2.497-16.967.931-4.812 1.704-10.073 10.504-10.393 11.319-.412 1.711 14.475 9.89 21.757 8.217 7.316 19.198 19.703 21.639 34.819 2.282 14.131.319 34.359-6.618 46.712-2.604 4.637-4.847 8.546-9.624 8.546-11.245 0-13.528-.874-22.557-7.216-5.549-3.899-3.722-3.251-7.707-6.663-.86-.737-3.21-.859-3.767-1.883z" fill="#8997FF"/><path d="M815.329 179.164l-2.433-53.798c2.961 12.486 3.482 27.379 3.144 40.037-.135 5.06-.407 9.748-.711 13.761z" fill="#000" fill-opacity=".01" stroke="#fff" stroke-width="2"/><mask id="a" fill="#fff"><path fill-rule="evenodd" clip-rule="evenodd" d="M817.053 152.256s6.014-12.018 7.105-18.045l-7.105 18.045z"/></mask><path fill-rule="evenodd" clip-rule="evenodd" d="M817.053 152.256s6.014-12.018 7.105-18.045l-7.105 18.045z" fill="#000" fill-opacity=".01"/><path d="M817.053 152.256l1.789.894.001-.003.004-.007.014-.028.052-.105.197-.401a165.6 165.6 0 0 0 2.919-6.313c1.632-3.739 3.504-8.451 4.097-11.725l-3.936-.713c-.498 2.752-2.179 7.062-3.827 10.839a163.86 163.86 0 0 1-2.846 6.154l-.188.384-.049.098-.012.024a.022.022 0 0 1-.003.005v.001l-.001.001 1.789.895z" fill="#fff" mask="url(#a)"/><mask id="b" fill="#fff"><path fill-rule="evenodd" clip-rule="evenodd" d="M816.527 157.032s-9.584-11.021-11.579-16.187l11.579 16.187z"/></mask><path fill-rule="evenodd" clip-rule="evenodd" d="M816.527 157.032s-9.584-11.021-11.579-16.187l11.579 16.187z" fill="#000" fill-opacity=".01"/><path d="M816.527 157.032l1.509-1.312v-.001l-.001-.001-.005-.005a9.116 9.116 0 0 0-.097-.112l-.301-.351a164.075 164.075 0 0 1-4.568-5.602c-1.307-1.68-2.661-3.502-3.804-5.208-1.163-1.736-2.032-3.241-2.447-4.316l-3.731 1.442c.583 1.508 1.66 3.318 2.855 5.101 1.216 1.813 2.632 3.716 3.97 5.437a168.636 168.636 0 0 0 4.997 6.109l.083.096.022.026.006.007.002.001v.001l1.51-1.312z" fill="#fff" mask="url(#b)"/><mask id="c" fill="#fff"><path fill-rule="evenodd" clip-rule="evenodd" d="M816.527 171.096s10.117-13.905 10.789-15.391l-10.789 15.391z"/></mask><path fill-rule="evenodd" clip-rule="evenodd" d="M816.527 171.096s10.117-13.905 10.789-15.391l-10.789 15.391z" fill="#000" fill-opacity=".01"/><path d="M816.527 171.096l1.617 1.176.002-.002.005-.008.022-.03.085-.117.324-.445 1.157-1.598c.96-1.329 2.249-3.117 3.558-4.952a418.15 418.15 0 0 0 3.696-5.248c.526-.762.987-1.443 1.342-1.986.317-.486.643-1.003.804-1.357l-3.645-1.648c.011-.025-.013.029-.121.207-.094.156-.224.361-.388.612a96.328 96.328 0 0 1-1.285 1.902 417.704 417.704 0 0 1-3.658 5.194 968.75 968.75 0 0 1-4.698 6.525l-.321.443-.085.116-.021.029a.033.033 0 0 0-.006.008l-.001.001v.001l1.617 1.177z" fill="#fff" mask="url(#c)"/><mask id="d" fill="#fff"><path fill-rule="evenodd" clip-rule="evenodd" d="M814.948 183.833s-13.744-15.059-17.369-20.167l17.369 20.167z"/></mask><path fill-rule="evenodd" clip-rule="evenodd" d="M814.948 183.833s-13.744-15.059-17.369-20.167l17.369 20.167z" fill="#000" fill-opacity=".01"/><path d="M814.948 183.833l1.477-1.348-.001-.001-.001-.002-.008-.008a1.24 1.24 0 0 0-.029-.032l-.115-.126-.44-.484a791.803 791.803 0 0 1-6.709-7.491c-3.913-4.43-8.174-9.384-9.912-11.833l-3.262 2.315c1.887 2.66 6.31 7.789 10.176 12.166a760.762 760.762 0 0 0 7.336 8.181l.008.008.002.002v.001l1.478-1.348z" fill="#fff" mask="url(#d)"/><path fill-rule="evenodd" clip-rule="evenodd" d="M813.419 272.608c-.381-3.7-27.103-31.738-30.999-36.465-6.577-7.98-10.084-15.832-2.685-17.191 5.758-1.057-2.904-7.346-4.697-11.761-2.431-5.985-3.512-8.987-3.004-15.261.237-2.92 3.657-13.139 11.547-2.611 6.918 9.233 15.078-9.169 27.1-3.39 3.331 1.6 9.906 5.607 11.755 8.25 3.194 4.568 9.353 5.578.676 16.383-3.851 4.796-13.417 24.922-13.97 31.158-.415 4.685 2.03 18.994 2.217 23.392 0 .012 2.072 7.615 2.06 7.496z" fill="#93A8FF"/><path d="M809.766 221.007l-20.534-17.568c7.377 4.536 13.233 9.755 17.525 14.254a89.969 89.969 0 0 1 3.009 3.314z" fill="#000" fill-opacity=".01" stroke="#fff" stroke-width="2"/><mask id="e" fill="#fff"><path fill-rule="evenodd" clip-rule="evenodd" d="M796 205.592l-1.579-10.614L796 205.592z"/></mask><path fill-rule="evenodd" clip-rule="evenodd" d="M796 205.592l-1.579-10.614L796 205.592z" fill="#000" fill-opacity=".01"/><path d="M797.978 205.298l-1.579-10.614-3.956.588 1.579 10.614 3.956-.588z" fill="#fff" mask="url(#e)"/><mask id="f" fill="#fff"><path fill-rule="evenodd" clip-rule="evenodd" d="M802.579 211.695l-14.737 1.062 14.737-1.062z"/></mask><path fill-rule="evenodd" clip-rule="evenodd" d="M802.579 211.695l-14.737 1.062 14.737-1.062z" fill="#000" fill-opacity=".01"/><path d="M802.435 209.7l-14.736 1.062.287 3.99 14.737-1.062-.288-3.99z" fill="#fff" mask="url(#f)"/><mask id="g" fill="#fff"><path fill-rule="evenodd" clip-rule="evenodd" d="M811.264 220.717l-1.316-20.963 1.316 20.963z"/></mask><path fill-rule="evenodd" clip-rule="evenodd" d="M811.264 220.717l-1.316-20.963 1.316 20.963z" fill="#000" fill-opacity=".01"/><path d="M813.26 220.592l-1.316-20.963-3.992.251 1.315 20.963 3.993-.251z" fill="#fff" mask="url(#g)"/><mask id="h" fill="#fff"><path fill-rule="evenodd" clip-rule="evenodd" d="M816.264 227.882l-22.106 1.858 22.106-1.858z"/></mask><path fill-rule="evenodd" clip-rule="evenodd" d="M816.264 227.882l-22.106 1.858 22.106-1.858z" fill="#000" fill-opacity=".01"/><path d="M816.096 225.889l-22.105 1.858.334 3.986 22.106-1.858-.335-3.986z" fill="#fff" mask="url(#h)"/><path fill-rule="evenodd" clip-rule="evenodd" d="M817.674 284.047c-8.951-12.351-15.884-36.775-13.698-52.004 3.102-21.609 22.622-32.619 36.678-41.775 7.356-4.792 16.419-9.885 19.946 2.166 1.801 6.152-7.172 7.673.612 13.466 5.133 3.819 5.841 8.539 3.343 13.326-1.648 3.159-17.991 11.764-13.305 12.202.328.03 10.268-7.218 11.899-2.928 1.013 2.663-1.551 4.327-3.342 6.001-3.266 3.051-8.305 7.309-13.001 11.017-4.424 3.491-37.281 35.721-24.519 38.859 2.263.557-4.14.322-4.613-.33z" fill="#BAC7FF"/><path d="M819.589 281.426a58.328 58.328 0 0 1-1.845-5.396c-1.396-4.82-2.727-11.563-2.471-19.259.494-14.837 6.881-33.342 30.399-48.54l-26.083 73.195z" fill="#fff" fill-opacity=".01" stroke="#F6F8FF" stroke-width="2"/><mask id="i" fill="#fff"><path fill-rule="evenodd" clip-rule="evenodd" d="M834.763 214.88l3.647-12.861-3.647 12.861z"/></mask><path fill-rule="evenodd" clip-rule="evenodd" d="M834.763 214.88l3.647-12.861-3.647 12.861z" fill="#000" fill-opacity=".01"/><path d="M836.687 215.425l3.647-12.861-3.848-1.091-3.647 12.861 3.848 1.091z" fill="#E6E6E6" mask="url(#i)"/><mask id="j" fill="#fff"><path fill-rule="evenodd" clip-rule="evenodd" d="M840.211 223.047l-14.747 3.774 14.747-3.774z"/></mask><path d="M839.715 221.109l-14.746 3.774.991 3.875 14.747-3.774-.992-3.875z" fill="#fff" mask="url(#j)"/><mask id="k" fill="#fff"><path fill-rule="evenodd" clip-rule="evenodd" d="M817.842 223.902l.264 15.921-.264-15.921z"/></mask><path d="M815.843 223.935l.263 15.921 3.999-.066-.263-15.921-3.999.066z" fill="#E6E6E6" mask="url(#k)"/><mask id="l" fill="#fff"><path fill-rule="evenodd" clip-rule="evenodd" d="M827.316 238.496L816 252.029l11.316-13.533z"/></mask><path d="M825.782 237.213l-11.316 13.534 3.069 2.565 11.316-13.533-3.069-2.566z" fill="#fff" mask="url(#l)"/><mask id="m" fill="#fff"><path fill-rule="evenodd" clip-rule="evenodd" d="M809.948 253.622l5 9.818-5-9.818z"/></mask><path fill-rule="evenodd" clip-rule="evenodd" d="M809.948 253.622l5 9.818-5-9.818z" fill="#000" fill-opacity=".01"/><path d="M808.165 254.529l5.001 9.818 3.564-1.815-5-9.818-3.565 1.815z" fill="#E6E6E6" mask="url(#m)"/><path fill-rule="evenodd" clip-rule="evenodd" d="M241.849 246.93l455.97-41.4v10.019l-441.027 42.689-14.943-11.308z" fill="#CCD6FF"/><path fill-rule="evenodd" clip-rule="evenodd" d="M696.923 215.595l-441.141 42.701-1.466 85.494 110.849 13.507 297.266-45.169 55.547-75.286-21.055-21.247z" fill="#ADBCFF"/><path fill-rule="evenodd" clip-rule="evenodd" d="M242.76 246.681c15.834.676 16.611 18.02 17.124 38.959.529 21.615.529 47.05.392 61.135-.008.787-.651 1.336-1.43 1.433-19.844 2.467-29.444-4.492-29.117-16.597.419-15.474-.883-34.253-.154-59.788.436-15.292 4.707-25.504 13.185-25.142z" fill="#8CA2FF"/><path fill-rule="evenodd" clip-rule="evenodd" d="M781.122 318.627l27.571-8.876-47.528-12.048-8.707 12.171 28.664 8.753z" fill="#A8B9FF"/><path fill-rule="evenodd" clip-rule="evenodd" d="M776.899 344.35v89.615l10.044 4.115V318.304l-6.309.339-28.773-8.757-2.318 26.713 27.356 7.751z" fill="#B0C0FF"/><path fill-rule="evenodd" clip-rule="evenodd" d="M790.286 311.379l14.801-1.938c4.689-.614 8.647 2.999 8.647 6.655v111.488c0 3.656-4.135 5.51-8.647 6.655l-14.801 3.756c-4.513 1.145-8.647-2.994-8.647-6.655V318.893c0-3.661 3.959-6.9 8.647-7.514z" fill="#DAE0FF"/><path fill-rule="evenodd" clip-rule="evenodd" d="M339.993 388.553L203.006 342.2v110.864c-1.741 23.681 5.503 35.197 17.935 39.685l118.922 53.397.13-157.593z" fill="#B6C4FF"/><path fill-rule="evenodd" clip-rule="evenodd" d="M202.857 341.882l132.218 47.199 30.117-5.355-143.408-52.386c-10.365.233-16.223 4.122-18.927 10.542z" fill="#B1C0FF"/><path fill-rule="evenodd" clip-rule="evenodd" d="M343.335 382.943l14.801-2.58c4.685-.817 8.647 3.893 8.647 8.634v144.477c0 4.745-4.085 7.309-8.647 8.635l-14.801 4.301c-4.563 1.325-8.647-3.886-8.647-8.635V391.578c0-4.749 3.961-7.818 8.647-8.635z" fill="#D7DEFF"/><path fill-rule="evenodd" clip-rule="evenodd" d="M366.253 357.118l.894 62.952 411.044-75.564-114.74-32.501-297.198 45.113z" fill="#CCD6FF"/><path fill-rule="evenodd" clip-rule="evenodd" d="M366.783 419.941l411.142-75.622v89.513l-411.142 98.276V419.941z" fill="#C1CDFF"/><path fill-rule="evenodd" clip-rule="evenodd" d="M749.864 348.821l18.777-107.507-49.224-13.536-.379 101.662c5.2 7.8 15.266 14.612 30.826 19.381z" fill="#9DB0FF"/><path fill-rule="evenodd" clip-rule="evenodd" d="M750.305 276.88c0-11.051 2.442-35.594 16.977-35.594 20.193 0-2.959 64.673-3.35 75.158-.271 7.248-2.11 29.237-9.863 31.96-11.74 4.126-23.359-13.908-12.016-22.301.806-.596 8.632-33.344 8.632-39.757 0-11.188-.529-7.431-.38-9.466z" fill="#CCD6FF"/><path fill-rule="evenodd" clip-rule="evenodd" d="M781.854 438.953L677.531 479.25c9.188 11.619 38.572 6.132 50.999 7.487l77.445 6.696c22.74-11.62 37.328-28.162 40.759-51.439l-64.88-3.041z" fill="#8FA5FF"/><path fill-rule="evenodd" clip-rule="evenodd" d="M709.924 443.253c-14.215 9.685-25.802 21.127-32.393 35.906 11.788-6.935 31.312 1.041 49.922 7.257l43.445 10.696c22.453 5.472 34.459.133 41.157-10.696 8.984-19.802 20.615-34.565 34.679-44.691-16.7-14.048-37.655-17.433-59.449-18.717l-77.361 20.245z" fill="#CCD6FF"/><path fill-rule="evenodd" clip-rule="evenodd" d="M772.359 406.531c27.873 0 50.469 17.237 50.469 38.5 0 16.909-15.156 32.065-35.026 37.238-5.115 1.331-9.736 1.262-15.443 1.262-27.872 0-50.468-17.237-50.468-38.5s22.596-38.5 50.468-38.5z" fill="#F4E8E1"/><path fill-rule="evenodd" clip-rule="evenodd" d="M790.81 425.398c9.908 0 17.939 8.033 17.939 17.941 0 4.987-3.2 12.169-6.994 15.518-9.624 8.496-20.788 2.744-26.797 11.391-9.094 13.086-19.446 10.507-38.585 11.059-5.013.145-15.28-2.242-11.943-9.302.226-.479.742-2.865 3.813-3.66 5.264-1.365 7.908 1.184 15.787-1.355 11.221-3.615 21.656-29.466 37.398-38.945.21-.129.423-.254.639-.374l.045-.027.005-.002a17.861 17.861 0 0 1 8.693-2.244zM697.368 467.035c-.723 8.812 13.453 10.984 20.052 10.984 4.203 0 6.587-7.391.536-11.673-3.462-2.45-10.149-2.633-14.943-5.682-.268-.17-.562-.19-.848-.231-1.473-.752-4.73 5.773-4.797 6.602z" fill="#E2CDC2"/><path fill-rule="evenodd" clip-rule="evenodd" d="M746.08 437.095c3.816 3.383 6.091 4.8 5.71 13.816-.38 9.015-12.223 19.667-27.302 19.667-15.078 0-27.301-8.805-27.301-19.667 0-5.277 2.885-10.068 7.58-13.6l-.003.001-3.867-17.945 10.97 5.821v.001c2.747-3.282 8.868-5.49 13.762-5.49 5.795 0 8.507 1.938 11.228 2.615l14.788-5.418-5.564 20.199h-.001z" fill="#EEDACF"/><path fill-rule="evenodd" clip-rule="evenodd" d="M730.391 420.342c-3.345-1.058-8.332-.652-10.59.263-2.692 12.467 8.06 15.954 8.774 7.808-.031-2.762.959-5.815 1.816-8.071z" fill="#FFF3ED"/><path fill-rule="evenodd" clip-rule="evenodd" d="M706.092 465.759c-5.473-3.619-8.909-8.839-8.909-14.642 0-1.929.38-3.795 1.088-5.557 2.613-.995 5.676-1.567 8.953-1.567 9.565 0 17.32 4.878 17.32 10.895 0 6.017-7.755 10.894-17.32 10.894-.381 0-.758-.008-1.132-.023z" fill="#FFF7F4"/><path fill-rule="evenodd" clip-rule="evenodd" d="M751.377 445.799c.196 1.424.256 3.153.166 5.318-.213 5.1-4.033 10.721-10.005 14.664-9.416-.1-17.001-4.938-17.001-10.893 0-6.018 7.745-10.896 17.298-10.896 3.527 0 6.807.666 9.542 1.807zM771.095 465.527c24.904 0 20.066 16.158 16.66 16.995-44.396 10.91-45.677-16.995-16.66-16.995z" fill="#FFF7F4"/><path fill-rule="evenodd" clip-rule="evenodd" d="M629.774 550.929l-14.429 3.602-17.058 7.033 19.026 15.429 12.461-26.064zM550.129 568.024l-37.835-2.363 18.372 26.067 19.463-23.704z" fill="#CCD6FF"/><path fill-rule="evenodd" clip-rule="evenodd" d="M549.859 567.65l-18.776-1.188-.541 25.011 19.317-23.823zM630.31 549.299l-18.558 3.082 5.176 24.481 13.382-27.563z" fill="#8EA2F9"/><path fill-rule="evenodd" clip-rule="evenodd" d="M498.007 560.309l-30.429-11.237 13.433 23.961 16.996-12.724z" fill="#CCD6FF"/><path fill-rule="evenodd" clip-rule="evenodd" d="M498.264 559.646l-14.175-5.307-2.762 18.163 16.937-12.856z" fill="#8EA2F9"/><path fill-rule="evenodd" clip-rule="evenodd" d="M521.821 568.662l8.715-36.68 106.179-38.447c15.02 14.134 14.556 40.144 4.036 51.956-36.46 19.136-75.912 23.604-118.93 23.171z" fill="#ADBDFF"/><path fill-rule="evenodd" clip-rule="evenodd" d="M465.284 548.329l56.013 20.766c9.324-.65 14.649-6.828 15.467-14.703.797-7.67.933-19.479-10.902-24.303l-50.828-32.868c-15.79 5.663-26.505 33.707-9.75 51.108z" fill="#A3B4FE"/><path fill-rule="evenodd" clip-rule="evenodd" d="M479.751 494.43l89.887-20.903c46.806 1.108 68.184 16.795 68.331 24.334.272 14.02-38.288 32.422-83.082 33.653-15.293 2.302-29.871 1.287-43.649-3.447-34.424-10.186-48.686-27.597-31.487-33.637z" fill="#CCD6FF"/><path fill-rule="evenodd" clip-rule="evenodd" d="M373.229 177.714s-7.041 60.062-13.983 60.616c-5.601.446-14.047-1.795-14.047-1.795s-3.57 9.356-1.872 12.419c1.699 3.062-35.834 5.634-38.44-.98 4.04-7.117 7.831-11.818 10.224-16.212 3.526-6.478 4.787-11.26 5.629-13.709 3.022-8.796-7.832 1.133-7.876-22.296-.016-8.439 7.807-17.691 18.829-21.053 17.542-5.352 41.442-1.298 41.536 3.01z" fill="#FDE3D6"/><path fill-rule="evenodd" clip-rule="evenodd" d="M386.696 166.29c-.747 10.87-9.601 17.242-19.398 19.468-27.227 6.184-27.122-11.929-38.491-4.886-1.982 1.229-3.875 6.896-1.096 12.429 4.005 7.971 2.835 20.167 3.1 25.622.885 6.451 8.849 12.113 16.876 7.088 1.181-.74 2.363-1.71 3.524-2.943 3.62-3.844 9.727-6.592 14.713.394-.81 5.246-2.354 10.19-5.313 14.551-5.74 2.281-25.126-1.218-33.638-5.896-3.033-1.666-4.233-2.406-4.219-5.761.021-4.71 12.217-35.285-1.452-33.217-6.083.92-8.314 14.981 2.017 18.871.509 6.869-7.929 20.026-7.929 20.026s-23.217-32.558-17.884-53.368c1.933-7.539 5.626-11.334 10.893-14.119.1-.053.124-.189.185-.282 18.372-27.738 40.581 6.681 77.094-7.961 1.591-.638.405 5.178-10.716 10.718-.117.058.068.208.154.305 1.503 1.693 8.088-.413 10.599-1.538.753-.337 1.053-.557.981.499z" fill="#997360"/><path fill-rule="evenodd" clip-rule="evenodd" d="M545.93 460.046c.438 9.495.098 7.559-1.657 15.841-.533 2.512-1.778 14.885 1.516 16.242 6.924 2.854 51.065 14.988 57.609 11.23 2.938-1.687 9.029-2.788 7.645-9.588-.861-4.235-30.029-15.154-36.735-27.264-.638-1.152-8.17-11.955-9.238-12.288-4.373-1.366-13.317 4.691-17.608 4.863-.582.023-1.566.251-1.532.964z" fill="#B8998A"/><path fill-rule="evenodd" clip-rule="evenodd" d="M545.348 471.912c-.229.957-.499 2.12-.817 3.619-.531 2.508-1.773 14.867 1.513 16.223 2.412.995 9.353 3.12 17.642 5.305-1.327-12.376-7.936-20.344-18.338-25.147zM589.062 502.729c6.979 1.124 12.577 1.477 14.596.32 2.94-1.684 9.034-2.782 7.649-9.568-.425-2.083-7.728-5.786-15.829-10.453-4.702 4.708-7.156 11.045-6.416 19.701z" fill="#DFCEC6"/><path fill-rule="evenodd" clip-rule="evenodd" d="M511.107 470.972c-.068 2.123 9.013 6.465 11.87 9.042 5.318 4.797 25.024 10.089 32.462 15.483 6.613 4.795 11.955 17.368 5.421 21.18-6.611 3.856-20.896 6.058-27.698 1.323-.938-.654-7.682-6.698-10.042-9.361-1.804-2.036-25.658-25.257-23.316-26.419 4.556-2.259 11.303-11.369 11.303-11.248z" fill="#B8998A"/><path fill-rule="evenodd" clip-rule="evenodd" d="M557.345 497.057c5.587 5.617 9.253 16.071 3.389 19.493-4.631 2.702-13.012 4.594-19.974 3.876-1.974-12.144 2.863-20.335 16.585-23.369z" fill="#DFCEC6"/><path fill-rule="evenodd" clip-rule="evenodd" d="M398.129 366.758l43.62 25.023c18.755 2.628 37.128 1.042 55.377-1.895 12.302 26.521 28.535 51.077 48.93 73.555l21.074-8.269-43.453-98.651-101.273-7.962-24.275 18.199z" fill="#7679F6"/><path fill-rule="evenodd" clip-rule="evenodd" d="M365.548 372.636l1.589 35.482c16.419 4.026 32.002 5.667 48.927 5.65 24.689 25.398 55.061 47.762 82.592 71.643l16.291-14.404c-19.955-28.079-41.243-55.491-70.319-79.007-17.559-13.673-39.792-23.446-63.42-32.059l-15.66 12.695z" fill="#8083FF"/><path fill-rule="evenodd" clip-rule="evenodd" d="M342.124 361.264l19.019 8.881s2.788-.479 6.177 8.328c3.388 8.807 4.219 20.237 4.269 22.299.051 2.063-2.123 2.35-5.776 2.052-5.198-.583-7.152-4.501-7.152-4.501s-1.459-1.86-3.709-3.97c-1.275-.996-2.362-2.023-3.559-7.065-1.196-5.042-19.222-17.131-19.222-17.131l9.953-8.893z" fill="#FDE3D6"/><path fill-rule="evenodd" clip-rule="evenodd" d="M304.68 247.84c9.41 5.164 38.232 1.452 38.414.981.348-.9 3.052-2.684 8.701-3.113 20.26-.12 33.681 18.918 40.439 28.458 4.705 6.641 22.381 36.101 22.044 39.409-.049.483.059.969.208 1.43l1.774 5.522c8.042 24.983 11.007 33.035-25.291 41.442-5.88 5.277-16.974 5.161-17.639 15.831-.141 2.259-8.94-6.583-15.35-10.781-4.384-2.873-8.286-7.139-12.648-6.142-4.882 1.115-10.523 10.437-14.246 11.893-3.995 1.562-61.15-16.031-67.535-18.946-7.462-3.407-8.728-12.146-8.066-20.152 1.729-20.92 19.095-64.826 27.661-75.487 8.127-10.117 21.599-10.355 21.534-10.345zm-2.462 93.732c-4.472-15.449-4.886-33.752-2.275-50.717-4.222 13.755-9.53 28.767-20.077 43.28l22.352 7.437z" fill="#fff"/><path fill-rule="evenodd" clip-rule="evenodd" d="M399.929 361.264c-9.47-17.787-20.171-42.146-26.966-67.499 8.832 23.744 18.449 47.804 33.374 65.472l-6.408 2.027zM301.179 337.969l1.013 3.757c16.706 4.115 31.706 9.941 43.104 19.374 0 0-4.055.161.12 2.018 3.7 1.645 13.443 4.335 18.606 9.43 3.731 3.682 5.162 13.407 5.499 13.07 3.232-3.23 5.214-13.573 6.887-14.973-28.636-17.425-47.847-24.414-75.229-32.676z" fill="#D4DDFF"/><path fill-rule="evenodd" clip-rule="evenodd" d="M411.732 300.779l58.244-6.01c2.036-.21 6.561 1.982 5.925 3.919l-20.52 62.497c-.635 1.936-1.701 3.442-3.72 3.72l-55.955 7.728c-2.02.279-6.584-3.474-6.01-5.438l18.315-62.695c.574-1.964 1.685-3.511 3.721-3.721z" fill="#fff"/><path fill-rule="evenodd" clip-rule="evenodd" d="M414.421 302.362l58.347-6.006c2.039-.21 4.299 1.762 3.726 3.718l-18.347 62.641c-.572 1.955-1.695 3.509-3.727 3.718l-58.346 6.005c-2.032.209-4.302-1.755-3.727-3.718l18.347-62.641c.575-1.962 1.688-3.507 3.727-3.717z" fill="#E2E6F6"/><path fill-rule="evenodd" clip-rule="evenodd" d="M471.149 319.948l.766-3.293c-.315 1.205 4.574-8.597 5.942.424l-6.606 28.424s-1.577 3.585-5.532 3.357c-3.107-.18-8.11-2.647-10.111-3.696a5.093 5.093 0 0 0-1.547-.516c-1.059-.173-3.153-.911-4.808-3.955-1.929-3.548-2.797-5.086-3.786-6.438-.985-1.347-.622-2.827 1.848-4.964 3.124-2.7 14.631-6.223 19.999-4.576 3.63 1.114 3.835-4.767 3.835-4.767z" fill="#FDE3D6"/><path fill-rule="evenodd" clip-rule="evenodd" d="M550.821 337.559l-15.411-6.727-16.684 11.284 3.228 4.535 21.644-.755 7.223-8.337z" fill="#FFE4DF"/><path fill-rule="evenodd" clip-rule="evenodd" d="M639.318 328.555l36.966-11.877-63.908-50.72c-6.271-4.932-12.598-4.998-18.995.754l-61.923 62.602 21.655 9.428c15.132-14.456 35.802-25.007 47.326-41.726 21.28 16.412 26.279 25.128 38.879 31.539z" fill="#8EE2F7"/><path fill-rule="evenodd" clip-rule="evenodd" d="M716.868 351.611l-40.467-35.017-77.146 11.851c-6.648-1.116-12.531-.201-17.661 2.713l-70.029 10.758.379 20.028c26.99-.897 53.441-3.763 78.914-10.203 39.882 8.406 82.581 5.593 126.01-.13z" fill="#A1ECFF"/><path fill-rule="evenodd" clip-rule="evenodd" d="M513.402 362.201c4.091 0 7.428-4.56 7.428-10.151 0-5.59-3.337-10.149-7.428-10.149-4.092 0-7.429 4.559-7.429 10.149 0 5.591 3.337 10.151 7.429 10.151z" fill="#B1B0B0"/><path fill-rule="evenodd" clip-rule="evenodd" d="M489.767 312.374c5.622.359 9.648 3.779 11.793 10.803 1.328 4.348 1.607 13.457 2.084 18.375l15.915 4.999c1.816 4.274 1.612 8.506-.911 12.687l-10.222.556c-6.611 2.298-13.34 2.942-20.206 1.723l1.547-49.143z" fill="#FFE4DF"/><path fill-rule="evenodd" clip-rule="evenodd" d="M489.684 312.374c5.632.358 9.665 3.777 11.814 10.799a20.3 20.3 0 0 1 .508 2.122h-12.729l.407-12.921zM486.887 358.917l7.438-10.435c5.444 3.03 8.439 7.342 10.065 12.37-5.319 1.151-10.756 1.608-16.453.548l-1.05-2.483z" fill="#FFF3F1"/><path fill-rule="evenodd" clip-rule="evenodd" d="M488.239 312.375c1.41 0 4.251.527 5.363 2.906 2.042 4.364 1.875 12.952 1.875 21.774 0 13.63-3.24 24.68-7.238 24.68-1.722 0-4.828.21-6.071-3.212-1.641-4.524-1.168-13.709-1.168-21.468 0-13.631 3.241-24.68 7.239-24.68z" fill="#FBC0B5"/><path fill-rule="evenodd" clip-rule="evenodd" d="M488.267 312.112c1.411 0 4.253.529 5.367 2.913 1.089 2.333 1.55 5.871 1.743 10.006l-13.26-1.247c1.278-7.008 3.555-11.672 6.15-11.672zM494.31 348.465c-1.21 7.743-3.582 13.006-6.311 13.006-1.704 0-4.778.211-6.008-3.217-.92-2.564-1.169-6.624-1.212-11.074l13.531 1.285z" fill="#FFDDD7"/><path fill-rule="evenodd" clip-rule="evenodd" d="M733.732 233.254c-18.284 11.606-27.064 6.349-27.011 5.775-6.942-.074-23.397 16.079-28.067 23.653-3.251 5.272-13.004 22.023-15.43 23.856-5.157-.486-10.055-3.227-10.145-2.87l-24.082-4.199c-.192.765 37.22 34.944 39.543 35.287 6.057.894 8.437.729 12.875 7.515 6.236 9.536 12.185 20.64 20.587 26.073 4.57 2.955 9.445 4.372 14.609 3.239 11.634-2.553 15.34-15.256 17.593-23.796.924-3.503.833-4.687 1.044-4.849.057-.043.135-.013.257.065 4.002 2.569 6.226 6.187 15.912 8.029 15.318-5.014 8.617-53.215 7.6-57.703-4.047-30.442-27.79-40.318-25.285-40.075z" fill="#fff"/><path fill-rule="evenodd" clip-rule="evenodd" d="M705.116 296.039L689.75 282.58c-5.579 11.642-13.219 21.966-21.955 31.59.367.253.604.973 1.144.664 8.565-4.906 20.983-18.499 29.853-13.539 13.72 7.672 20.277 25.573 34.744 30.063l1.898-8.111-30.318-27.208zM735.584 293.723c-7.673-5.087-16.13-6.686-24.819-7.253 21.073 5.066 29.914 14.128 38.991 19.576l-11.603-11.288c-2.637-8.253-2.031-16.08-2.379-24.836l-.19 23.801z" fill="#D4DDFF"/><path fill-rule="evenodd" clip-rule="evenodd" d="M710.767 286.415l-11.106-13.709s-.168-2.365-8.067-3.365c-7.899-1.001-17.432.604-19.132.975-1.701.37-7.318 4.58.482 4.513 7.8-.067 7.335-.125 7.335-.125s.32 5.781 1.392 6.62c1.073.839 1.533 2.772 5.905 2.74 4.372-.032 17.907 12.227 17.907 12.227l5.284-9.876zM685.394 187.592c2.835 4.382-5.661 29.828 9.44 40.041 1.825 1.234 4.102 2.319 6.261 2.806 4.545 1.024 6.554-1.053 6.745-.813.136.171.679 3.561-.776 9.711 8.408 2.901 27.855-4.275 27.013-5.78-7.308-13.062-9.277-17.895-1.643-33.367 6.715-13.607-19.082-20.441-27.814-20.441-10.907 0-19.48 7.841-19.226 7.843z" fill="#FEE9E0"/><path fill-rule="evenodd" clip-rule="evenodd" d="M704.925 239.555c.183-1.123 1.124-1.724 2.578-1.972 6.678 2.606 15.965-.719 25.951-5.634 1.408.437 1.961 1.333 1.972 2.52-10.893 5.283-20.12 9.611-30.501 5.086zM706.655 297.342c-1.537-.165-2.485-1.061-2.899-2.615l5.656-10.039c1.246.038 2.217.691 2.84 2.118l-5.597 10.536z" fill="#FBC0B5"/><path fill-rule="evenodd" clip-rule="evenodd" d="M635.558 238.621l19.231 5.128c1.263.337 2.387 1.07 2.377 2.372l-.285 36.817c-.01 1.301-2.773 3.334-4.032 2.994-2.34-.634-21.67-6.133-21.668-7.553l.052-37.314c.003-1.947 3.061-2.781 4.325-2.444z" fill="#fff"/><path fill-rule="evenodd" clip-rule="evenodd" d="M633.584 239.413l19.344 5.138c1.27.338 2.401 1.072 2.391 2.377l-.287 36.888c-.01 1.304-1.125 2.719-2.391 2.378l-19.057-5.138c-1.269-.342-2.392-1.07-2.392-2.378V241.79c0-1.308 1.121-2.715 2.392-2.377z" fill="#B2B6CA"/><path fill-rule="evenodd" clip-rule="evenodd" d="M632.073 262.444l-.052-2.109c.044.778-1.968-5.968-4.294-.808l.444 18.207s.585 2.429 3.434 2.999c6.495-2.159 10.294-2.655 11.501-3.967 3.457-3.761 2.297-11.119.184-12.831-.968-.785-2.691-.642-5.58.965-1.086.603-2.305 1.076-3.622 1.085-2.751.018-2.015-3.541-2.015-3.541z" fill="#F8E8E0"/><path fill-rule="evenodd" clip-rule="evenodd" d="M737.239 150.101c11.517 3.574 18.618 13.902 15.862 23.068-2.756 9.166-14.326 13.698-25.842 10.124-11.516-3.574-18.618-13.901-15.861-23.067 2.755-9.166 14.326-13.699 25.841-10.125z" fill="#997360"/><path fill-rule="evenodd" clip-rule="evenodd" d="M686.781 170.883c-12.877-.613-16.598 9.286-15.136 16.018 2.694 12.404 29.547 10.057 32.987 4.266 5.521-9.29 21.768-7.011 12.085 7.727-1.665 2.534 3.198 6.296 4.743-1.29 1.373-6.739 13.833-10.019 6.441 6.703-2.861 6.472-6.553 12.138-1.562 18.802 2.378 3.175 3.958 4.364 4.135 3.499.209-1.026-.977-4.463 1.726-8.414 8.258-12.073 19.946-33.25 6.781-46.774-8.44-8.67-16.458-11.182-26.625-5.682-10.537 5.7-13.674 5.711-25.575 5.145z" fill="#997360"/></svg>